<svg xmlns="http://www.w3.org/2000/svg" viewBox="0 0 24 24"><defs><style>.cls-1{fill:#b0b0b1;}</style></defs><title>Asset 1</title><g id="Layer_2" data-name="Layer 2"><g id="ëÎÓÈ_3" data-name="ëÎÓÈ 3"><path class="cls-1" d="M8.89,17.78A8.89,8.89,0,1,1,15.18,2.6h0A8.89,8.89,0,0,1,8.89,17.78Zm0-16A7.1,7.1,0,0,0,1.81,8.89a7.08,7.08,0,1,0,12.09-5h0A7,7,0,0,0,8.89,1.81Z"/><path class="cls-1" d="M23.09,24a.9.9,0,0,1-.64-.27L13.9,15.18a.91.91,0,1,1,1.28-1.28l8.55,8.55A.91.91,0,0,1,23.09,24Z"/></g></g></svg>