<?xml version="1.0" encoding="utf-8"?>
<!-- Generator: Adobe Illustrator 23.0.1, SVG Export Plug-In . SVG Version: 6.00 Build 0)  -->
<svg version="1.1" id="Layer_1" xmlns="http://www.w3.org/2000/svg" xmlns:xlink="http://www.w3.org/1999/xlink" x="0px" y="0px"
	 viewBox="0 0 64 64" style="enable-background:new 0 0 64 64;" xml:space="preserve">
<style type="text/css">
	.st0{fill:#FFFFFF;}
</style>
<g>
	<g>
		<path class="st0" d="M33.2,20c-0.2-0.2-0.5-0.4-0.7-0.5c-0.7-0.3-1.6-0.1-2.1,0.5L14.4,35.9c-0.8,0.8-0.8,2,0,2.8s2,0.8,2.8,0
			l14.5-14.5l14.5,14.5c0.4,0.4,0.9,0.6,1.4,0.6s1-0.2,1.4-0.6c0.8-0.8,0.8-2,0-2.8C49,35.9,33.2,20,33.2,20z"/>
		<path class="st0" d="M32,0C14.4,0,0,14.4,0,32s14.4,32,32,32s32-14.4,32-32S49.6,0,32,0z M32,60C16.6,60,4,47.4,4,32S16.6,4,32,4
			s28,12.6,28,28S47.4,60,32,60z"/>
	</g>
</g>
</svg>
